<?xml version="1.0" standalone="no"?>
<!DOCTYPE svg PUBLIC "-//W3C//DTD SVG 20010904//EN"
 "http://www.w3.org/TR/2001/REC-SVG-20010904/DTD/svg10.dtd">
<svg version="1.0" xmlns="http://www.w3.org/2000/svg"
 width="473.000000pt" height="473.000000pt" viewBox="0 0 473.000000 473.000000"
 preserveAspectRatio="xMidYMid meet">

<g transform="translate(0.000000,473.000000) scale(0.100000,-0.100000)"
fill="#000000" stroke="none">
<path d="M0 2365 l0 -2365 2365 0 2365 0 0 2365 0 2365 -2365 0 -2365 0 0
-2365z m3255 1466 c682 -139 1131 -645 1206 -1360 15 -143 6 -454 -16 -573
-23 -127 -66 -271 -115 -382 -46 -106 -151 -270 -226 -354 l-47 -53 -81 83
c-74 77 -158 147 -228 191 l-28 17 -1 268 c0 147 -4 275 -7 285 -6 15 -48 -11
-275 -169 l-268 -187 57 -58 58 -59 -69 0 c-64 0 -71 2 -101 31 l-32 31 -89
-55 c-95 -61 -158 -87 -207 -87 -38 0 -108 32 -204 94 l-74 47 -66 -62 c-37
-35 -130 -121 -207 -193 -168 -156 -305 -287 -305 -292 0 -2 305 -4 678 -4
l677 0 119 -119 119 -119 -81 -26 c-220 -69 -479 -97 -725 -78 -274 21 -451
70 -703 192 -175 85 -212 115 -234 194 -8 29 -10 174 -8 496 3 448 3 456 25
497 29 53 84 98 139 112 60 15 1663 15 1719 0 51 -14 97 -49 127 -96 19 -31
24 -56 28 -138 l5 -100 17 55 c66 217 75 511 22 739 -95 410 -372 692 -759
772 -102 21 -309 25 -415 8 -313 -50 -575 -232 -719 -501 -83 -154 -126 -334
-138 -576 -5 -116 -9 -135 -25 -145 -31 -20 -76 -99 -93 -163 -13 -52 -15
-129 -13 -493 2 -237 0 -431 -4 -431 -4 0 -42 39 -84 87 -177 203 -279 411
-340 693 -32 145 -44 447 -24 622 58 529 338 960 771 1187 173 91 364 153 569
185 149 24 531 16 675 -13z m-2455 -1586 l0 -1565 -290 0 -290 0 0 1565 0
1565 290 0 290 0 0 -1565z m2690 -866 c94 -14 161 -39 239 -89 38 -25 227
-205 518 -495 l458 -455 -325 0 -325 0 -517 520 c-285 286 -518 524 -518 528
0 11 381 4 470 -9z"/>
<path d="M1976 2041 c-3 -4 20 -26 52 -48 31 -22 154 -108 272 -190 308 -215
437 -295 485 -300 36 -4 53 4 175 79 74 47 255 168 402 270 220 153 264 187
245 192 -35 9 -1625 7 -1631 -3z"/>
<path d="M1876 1955 c-9 -25 -7 -865 2 -865 5 0 19 12 33 26 13 15 133 127
267 251 133 123 242 228 242 233 0 4 -6 10 -14 13 -8 3 -117 77 -242 165 -301
209 -280 196 -288 177z"/>
</g>
</svg>
